<svg height="512pt" viewBox="0 -13 512.00101 512" width="512pt" xmlns="http://www.w3.org/2000/svg"><path d="m504.390625 59.394531v366.902344c0 28.605469-23.175781 51.796875-51.78125 51.796875h-393.222656c-28.601563 0-51.777344-23.191406-51.777344-51.796875v-366.902344c0-28.601562 23.175781-51.792969 51.777344-51.792969h393.222656c28.605469 0 51.78125 23.1875 51.78125 51.792969zm0 0" fill="#e1ebf0"/><path d="m504.390625 59.394531v49.613281h-496.78125v-49.613281c0-28.601562 23.175781-51.792969 51.777344-51.792969h393.222656c28.605469 0 51.78125 23.1875 51.78125 51.792969zm0 0" fill="#4c5072"/><path d="m80.503906 58.308594c0 10.078125-8.171875 18.25-18.253906 18.25s-18.253906-8.171875-18.253906-18.25c0-10.082032 8.171875-18.253906 18.253906-18.253906s18.253906 8.171874 18.253906 18.253906zm0 0" fill="#b4d2d7"/><path d="m149.988281 58.308594c0 10.078125-8.171875 18.25-18.25 18.25-10.082031 0-18.253906-8.171875-18.253906-18.25 0-10.082032 8.171875-18.253906 18.253906-18.253906 10.078125 0 18.25 8.171874 18.25 18.253906zm0 0" fill="#b4e7fd"/><path d="m219.476562 58.308594c0 10.078125-8.171874 18.25-18.25 18.25-10.082031 0-18.253906-8.171875-18.253906-18.25 0-10.082032 8.171875-18.253906 18.253906-18.253906 10.078126 0 18.25 8.171874 18.25 18.253906zm0 0" fill="#ff435e"/><path d="m70.222656 279.972656h89.007813v157.785156h-89.007813zm0 0" fill="#f9d35a"/><path d="m211.496094 145.109375h89.007812v292.648437h-89.007812zm0 0" fill="#b4e7fd"/><path d="m352.769531 239.511719h89.007813v198.246093h-89.007813zm0 0" fill="#ff435e"/><path d="m452.609375 0h-393.214844c-32.75 0-59.394531 26.644531-59.394531 59.394531v366.914063c0 32.746094 26.644531 59.390625 59.394531 59.390625h393.214844c32.75 0 59.390625-26.644531 59.390625-59.390625v-366.914063c0-32.75-26.644531-59.394531-59.390625-59.394531zm0 470.492188h-393.214844c-24.363281 0-44.1875-19.820313-44.1875-44.183594v-309.695313h366.703125c4.203125 0 7.605469-3.402343 7.605469-7.601562 0-4.203125-3.402344-7.605469-7.605469-7.605469h-366.703125v-42.011719c0-24.363281 19.820313-44.183593 44.1875-44.183593h393.214844c24.363281 0 44.183594 19.820312 44.183594 44.183593v42.011719h-84.464844c-4.203125 0-7.605469 3.40625-7.605469 7.605469s3.402344 7.601562 7.605469 7.601562h84.464844v309.695313c0 24.363281-19.820313 44.183594-44.183594 44.183594zm0 0"/><path d="m62.25 32.449219c-14.257812 0-25.855469 11.601562-25.855469 25.859375 0 14.257812 11.597657 25.855468 25.855469 25.855468s25.855469-11.597656 25.855469-25.855468c0-14.257813-11.597657-25.859375-25.855469-25.859375zm0 36.507812c-5.871094 0-10.648438-4.777343-10.648438-10.648437s4.777344-10.648438 10.648438-10.648438 10.648438 4.777344 10.648438 10.648438-4.777344 10.648437-10.648438 10.648437zm0 0"/><path d="m131.738281 32.449219c-14.257812 0-25.855469 11.601562-25.855469 25.859375 0 14.257812 11.597657 25.855468 25.855469 25.855468 14.257813 0 25.855469-11.597656 25.855469-25.855468 0-14.257813-11.597656-25.859375-25.855469-25.859375zm0 36.507812c-5.871093 0-10.648437-4.777343-10.648437-10.648437s4.777344-10.648438 10.648437-10.648438c5.871094 0 10.648438 4.777344 10.648438 10.648438s-4.777344 10.648437-10.648438 10.648437zm0 0"/><path d="m201.226562 32.449219c-14.257812 0-25.859374 11.601562-25.859374 25.859375 0 14.257812 11.601562 25.855468 25.859374 25.855468 14.253907 0 25.855469-11.597656 25.855469-25.855468 0-14.257813-11.597656-25.859375-25.855469-25.859375zm0 36.507812c-5.875 0-10.648437-4.777343-10.648437-10.648437s4.777344-10.648438 10.648437-10.648438c5.871094 0 10.648438 4.777344 10.648438 10.648438s-4.777344 10.648437-10.648438 10.648437zm0 0"/><path d="m159.230469 272.367188h-89.007813c-4.199218 0-7.605468 3.40625-7.605468 7.605468v157.785156c0 4.199219 3.40625 7.605469 7.605468 7.605469h89.007813c4.199219 0 7.601562-3.40625 7.601562-7.605469v-157.785156c0-4.199218-3.402343-7.605468-7.601562-7.605468zm-7.605469 157.785156h-73.800781v-142.578125h73.800781zm0 0"/><path d="m300.503906 137.507812h-89.007812c-4.199219 0-7.601563 3.402344-7.601563 7.601563v238.867187c0 4.199219 3.402344 7.601563 7.601563 7.601563 4.199218 0 7.605468-3.402344 7.605468-7.601563v-231.261718h73.800782v277.4375h-73.800782v-15.761719c0-4.199219-3.40625-7.601563-7.605468-7.601563-4.199219 0-7.601563 3.402344-7.601563 7.601563v23.367187c0 4.199219 3.402344 7.605469 7.601563 7.605469h89.007812c4.199219 0 7.605469-3.40625 7.605469-7.605469v-292.648437c0-4.199219-3.40625-7.601563-7.605469-7.601563zm0 0"/><path d="m441.777344 231.910156h-89.007813c-4.199219 0-7.601562 3.402344-7.601562 7.601563v198.246093c0 4.199219 3.402343 7.605469 7.601562 7.605469h89.007813c4.203125 0 7.605468-3.40625 7.605468-7.605469v-198.246093c0-4.199219-3.40625-7.601563-7.605468-7.601563zm-7.601563 198.242188h-73.800781v-183.035156h73.800781zm0 0"/></svg>