<svg width="429" height="503" viewBox="0 0 429 503" fill="none" xmlns="http://www.w3.org/2000/svg">
<g clip-path="url(#clip0)">
<g opacity="0.5">
<path opacity="0.5" d="M243.645 0.361328L9.60081 0.929144C7.0505 0.934273 4.6066 1.95054 2.80628 3.75457C1.00596 5.5586 -0.003422 8.00273 8.71676e-06 10.5497L1.06604 441.399C1.06943 442.66 1.32163 443.909 1.80823 445.073C2.29482 446.238 3.00629 447.295 3.90201 448.185C4.79773 449.074 5.86014 449.779 7.02862 450.259C8.1971 450.739 9.44874 450.984 10.7121 450.98L244.756 450.413C247.306 450.406 249.75 449.388 251.549 447.583C253.348 445.777 254.356 443.333 254.351 440.786L253.265 9.93675C253.257 7.39423 252.239 4.95876 250.436 3.16394C248.633 1.36912 246.191 0.361314 243.645 0.361328Z" fill="url(#paint0_linear)"/>
<path opacity="0.5" d="M241.045 -0.0056036L12.2286 0.552775C7.36155 0.564652 3.42566 4.51467 3.43755 9.37538L4.4814 436.022C4.4933 440.883 8.44847 444.814 13.3155 444.802L242.132 444.244C246.999 444.232 250.935 440.282 250.923 435.421L249.879 8.77399C249.867 3.91328 245.912 -0.0174806 241.045 -0.0056036Z" fill="white"/>
<path opacity="0.5" d="M243.974 123.1L243.729 20.5058C243.722 18.0273 242.73 15.6528 240.971 13.9045C239.212 12.1561 236.829 11.1769 234.348 11.182L188.573 11.2917C187.872 16.0045 185.506 20.3113 181.903 23.4333C178.299 26.5553 173.696 28.2863 168.925 28.3133L83.8036 28.5197C79.033 28.5163 74.4211 26.808 70.802 23.7037C67.183 20.5995 64.7958 16.3043 64.0722 11.595L18.9819 11.7047C16.5002 11.7115 14.1227 12.7022 12.372 14.4591C10.6214 16.2159 9.64087 18.5951 9.64602 21.0736L9.898 124.532L10.6281 424.351C10.64 426.83 11.637 429.202 13.3997 430.947C15.1625 432.692 17.5468 433.666 20.0286 433.656L235.394 433.133C237.868 433.119 240.236 432.128 241.981 430.376C243.725 428.624 244.704 426.254 244.704 423.783L243.974 123.1Z" fill="#BBBBBB"/>
<path opacity="0.5" d="M150.587 16.3627L98.2605 17.1471C97.547 17.1578 96.9772 17.7442 96.9879 18.4568L97.0006 19.302C97.0113 20.0147 97.5985 20.5837 98.312 20.573L150.639 19.7885C151.353 19.7778 151.922 19.1915 151.912 18.4788L151.899 17.6337C151.888 16.921 151.301 16.352 150.587 16.3627Z" fill="#DBDBDB"/>
<path opacity="0.5" d="M163.602 19.5944C164.74 19.5773 165.649 18.6421 165.632 17.5054C165.615 16.3687 164.678 15.4611 163.54 15.4782C162.402 15.4953 161.493 16.4305 161.51 17.5672C161.528 18.7038 162.464 19.6115 163.602 19.5944Z" fill="#DBDBDB"/>
<path opacity="0.5" d="M222.053 66.7957H107.314V75.9323H222.053V66.7957Z" fill="#E0E0E0"/>
<path opacity="0.5" d="M222.053 85.069H107.314V94.2056H222.053V85.069Z" fill="#E0E0E0"/>
<path opacity="0.5" d="M50.4526 98.4771C62.4204 98.4771 72.1223 88.7417 72.1223 76.7324C72.1223 64.7231 62.4204 54.9877 50.4526 54.9877C38.4848 54.9877 28.783 64.7231 28.783 76.7324C28.783 88.7417 38.4848 98.4771 50.4526 98.4771Z" fill="#F5F5F5"/>
<path opacity="0.5" d="M59.7886 91.9537H40.994C40.0923 91.9606 39.2056 92.1847 38.4092 92.6071C37.6128 93.0295 36.9303 93.6376 36.4197 94.3799C40.6428 96.7996 45.4214 98.0856 50.2901 98.1128C55.1587 98.1399 59.9514 96.9072 64.2013 94.5347C63.7241 93.7852 63.0749 93.1601 62.3075 92.7113C61.54 92.2624 60.6766 92.0027 59.7886 91.9537Z" fill="#00E0AF"/>
<path opacity="0.5" d="M41.149 77.2873C41.149 77.2873 38.3967 85.2883 36.8914 84.5398C36.8914 84.5398 51.3895 97.0447 64.1884 84.5398C62.6481 81.9111 60.7979 79.4762 58.6773 77.2873H41.149Z" fill="#333333"/>
<path opacity="0.5" d="M50.4399 87.295C56.3881 87.295 61.2101 82.4793 61.2101 76.5388C61.2101 70.5983 56.3881 65.7826 50.4399 65.7826C44.4917 65.7826 39.6697 70.5983 39.6697 76.5388C39.6697 82.4793 44.4917 87.295 50.4399 87.295Z" fill="#333333"/>
<path opacity="0.1" d="M46.6539 88.2242H54.1678V91.1407C54.1678 92.0546 53.8044 92.931 53.1573 93.5772C52.5103 94.2233 51.6328 94.5863 50.7178 94.5863H50.0717C49.1566 94.5863 48.2791 94.2233 47.6321 93.5772C46.9851 92.931 46.6216 92.0546 46.6216 91.1407V88.2242H46.6539Z" fill="black"/>
<path opacity="0.5" d="M47.4482 88.0435H53.3793C53.5901 88.0435 53.7922 88.1271 53.9412 88.276C54.0903 88.4248 54.174 88.6267 54.174 88.8372V90.9794C54.174 91.8932 53.8105 92.7696 53.1635 93.4158C52.5165 94.062 51.6389 94.425 50.7239 94.425H50.0778C49.1673 94.4182 48.2963 94.0522 47.6549 93.4067C47.0135 92.7613 46.6535 91.8888 46.6536 90.9794V88.8565C46.651 88.7507 46.6696 88.6454 46.7084 88.5469C46.7472 88.4483 46.8053 88.3585 46.8794 88.2828C46.9534 88.207 47.0419 88.1468 47.1396 88.1057C47.2373 88.0646 47.3422 88.0435 47.4482 88.0435Z" fill="#FDA57D"/>
<path opacity="0.1" d="M46.6731 89.1276C49.0972 90.025 51.763 90.025 54.1871 89.1276V88.2565H46.6731V89.1276Z" fill="black"/>
<path opacity="0.5" d="M50.4399 89.6308C56.3881 89.6308 61.2101 84.8151 61.2101 78.8746C61.2101 72.9341 56.3881 68.1184 50.4399 68.1184C44.4917 68.1184 39.6697 72.9341 39.6697 78.8746C39.6697 84.8151 44.4917 89.6308 50.4399 89.6308Z" fill="#FDA57D"/>
<path opacity="0.5" d="M40.1475 74.7902H60.68C60.68 74.7902 58.9291 66.5118 51.1632 67.0473C43.3973 67.5829 40.1475 74.7902 40.1475 74.7902Z" fill="#333333"/>
<path opacity="0.5" d="M39.8957 80.2942C40.4488 80.2942 40.8972 79.4535 40.8972 78.4165C40.8972 77.3795 40.4488 76.5389 39.8957 76.5389C39.3426 76.5389 38.8943 77.3795 38.8943 78.4165C38.8943 79.4535 39.3426 80.2942 39.8957 80.2942Z" fill="#FDA57D"/>
<path opacity="0.5" d="M60.9321 80.2942C61.4852 80.2942 61.9335 79.4535 61.9335 78.4165C61.9335 77.3795 61.4852 76.5389 60.9321 76.5389C60.379 76.5389 59.9307 77.3795 59.9307 78.4165C59.9307 79.4535 60.379 80.2942 60.9321 80.2942Z" fill="#FDA57D"/>
<path opacity="0.1" d="M40.1475 75.0742H60.68C60.68 75.0742 58.9291 66.7957 51.1632 67.3312C43.3973 67.8668 40.1475 75.0742 40.1475 75.0742Z" fill="black"/>
<path opacity="0.5" d="M222.053 136.392H107.314V145.528H222.053V136.392Z" fill="#E0E0E0"/>
<path opacity="0.5" d="M222.053 154.665H107.314V163.802H222.053V154.665Z" fill="#E0E0E0"/>
<path opacity="0.5" d="M50.4526 168.073C62.4204 168.073 72.1223 158.338 72.1223 146.328C72.1223 134.319 62.4204 124.584 50.4526 124.584C38.4848 124.584 28.783 134.319 28.783 146.328C28.783 158.338 38.4848 168.073 50.4526 168.073Z" fill="#E0E0E0"/>
<path opacity="0.5" d="M222.053 205.988H107.314V215.124H222.053V205.988Z" fill="#E0E0E0"/>
<path opacity="0.5" d="M222.053 224.261H107.314V233.398H222.053V224.261Z" fill="#E0E0E0"/>
<path opacity="0.5" d="M50.4526 237.669C62.4204 237.669 72.1223 227.934 72.1223 215.924C72.1223 203.915 62.4204 194.18 50.4526 194.18C38.4848 194.18 28.783 203.915 28.783 215.924C28.783 227.934 38.4848 237.669 50.4526 237.669Z" fill="#E0E0E0"/>
<path opacity="0.5" d="M222.053 275.584H107.314V284.72H222.053V275.584Z" fill="#E0E0E0"/>
<path opacity="0.5" d="M222.053 293.857H107.314V302.994H222.053V293.857Z" fill="#E0E0E0"/>
<path opacity="0.5" d="M50.4526 307.265C62.4204 307.265 72.1223 297.53 72.1223 285.521C72.1223 273.511 62.4204 263.776 50.4526 263.776C38.4848 263.776 28.783 273.511 28.783 285.521C28.783 297.53 38.4848 307.265 50.4526 307.265Z" fill="#E0E0E0"/>
<path opacity="0.5" d="M222.053 345.18H107.314V354.316H222.053V345.18Z" fill="#E0E0E0"/>
<path opacity="0.5" d="M222.053 363.453H107.314V372.59H222.053V363.453Z" fill="#E0E0E0"/>
<path opacity="0.5" d="M50.4526 376.861C62.4204 376.861 72.1223 367.126 72.1223 355.117C72.1223 343.107 62.4204 333.372 50.4526 333.372C38.4848 333.372 28.783 343.107 28.783 355.117C28.783 367.126 38.4848 376.861 50.4526 376.861Z" fill="#E0E0E0"/>
</g>
<path d="M394.279 54.4909L160.229 55.0587C157.679 55.0655 155.235 56.0834 153.436 57.8887C151.637 59.6939 150.629 62.1387 150.635 64.6857L151.701 493.425C151.704 494.686 151.956 495.935 152.443 497.099C152.929 498.264 153.641 499.321 154.537 500.211C155.432 501.101 156.495 501.805 157.663 502.285C158.832 502.765 160.083 503.01 161.347 503.007L395.404 502.439C397.949 502.428 400.387 501.411 402.183 499.609C403.979 497.807 404.987 495.367 404.985 492.825L403.919 64.0856C403.917 62.8234 403.667 61.5739 403.181 60.4084C402.696 59.243 401.985 58.1845 401.09 57.2935C400.195 56.4024 399.132 55.6963 397.964 55.2154C396.795 54.7345 395.543 54.4883 394.279 54.4909Z" fill="url(#paint1_linear)"/>
<path d="M391.677 52.014L162.861 52.5724C157.994 52.5843 154.058 56.5343 154.07 61.395L155.114 488.042C155.126 492.903 159.081 496.833 163.948 496.822L392.764 496.263C397.631 496.251 401.567 492.301 401.555 487.441L400.512 60.7936C400.5 55.9329 396.545 52.0022 391.677 52.014Z" fill="white"/>
<path d="M394.609 175.823L394.363 72.4996C394.357 70.0211 393.365 67.6467 391.605 65.8983C389.846 64.1499 387.464 63.1707 384.982 63.1759L339.194 63.2856C338.494 67.9983 336.128 72.3051 332.524 75.4271C328.921 78.5491 324.317 80.2801 319.547 80.3071L234.432 80.5136C229.661 80.5101 225.049 78.8018 221.43 75.6976C217.811 72.5933 215.424 68.2981 214.7 63.5888L169.61 63.6985C167.128 63.7053 164.751 64.6961 163 66.4529C161.25 68.2097 160.269 70.5889 160.274 73.0675L160.526 176.526" fill="#FAFAFA"/>
<path d="M160.526 176.532L161.256 476.351C161.263 478.83 162.255 481.204 164.014 482.953C165.773 484.701 168.156 485.68 170.637 485.675L386.003 485.152C388.485 485.146 390.862 484.155 392.613 482.398C394.364 480.641 395.344 478.262 395.339 475.784L394.602 175.1" fill="#FAFAFA"/>
<path d="M226.982 106.162H181.227V151.858H226.982V106.162Z" fill="#E0E0E0"/>
<g opacity="0.5">
<path opacity="0.5" d="M429 189.818H126.872V292.457H429V189.818Z" fill="url(#paint2_linear)"/>
</g>
<path d="M425.408 194.038H130.47V288.94H425.408V194.038Z" fill="white"/>
<path d="M362.835 229.184H248.096V238.321H362.835V229.184Z" fill="#00E0AF"/>
<path d="M362.835 247.464H248.096V256.601H362.835V247.464Z" fill="#00E0AF"/>
<path d="M362.835 330.417H248.096V339.553H362.835V330.417Z" fill="#E0E0E0"/>
<path d="M362.835 348.69H248.096V357.827H362.835V348.69Z" fill="#EEEEEE"/>
<path d="M331.157 142.715H279.774V158.885H331.157V142.715Z" fill="#00E0AF"/>
<path d="M191.235 260.866C203.202 260.866 212.904 251.13 212.904 239.121C212.904 227.112 203.202 217.376 191.235 217.376C179.267 217.376 169.565 227.112 169.565 239.121C169.565 251.13 179.267 260.866 191.235 260.866Z" fill="#F5F5F5"/>
<path d="M200.57 254.342H181.769C180.868 254.349 179.981 254.573 179.185 254.996C178.388 255.418 177.706 256.026 177.195 256.768C181.418 259.188 186.197 260.474 191.065 260.501C195.934 260.529 200.727 259.296 204.977 256.923C204.5 256.175 203.852 255.55 203.086 255.101C202.319 254.653 201.457 254.392 200.57 254.342Z" fill="#00E0AF"/>
<path d="M181.931 239.682C181.931 239.682 179.178 247.683 177.673 246.935C177.673 246.935 192.171 259.44 204.97 246.935C203.43 244.306 201.58 241.871 199.459 239.682H181.931Z" fill="#333333"/>
<path d="M191.221 249.69C197.17 249.69 201.992 244.874 201.992 238.934C201.992 232.993 197.17 228.178 191.221 228.178C185.273 228.178 180.451 232.993 180.451 238.934C180.451 244.874 185.273 249.69 191.221 249.69Z" fill="#333333"/>
<path opacity="0.1" d="M187.435 250.619H194.949V253.536C194.949 254.45 194.586 255.326 193.939 255.972C193.292 256.618 192.414 256.981 191.499 256.981H190.853C189.938 256.981 189.061 256.618 188.414 255.972C187.767 255.326 187.403 254.45 187.403 253.536V250.619H187.435Z" fill="black"/>
<path d="M188.23 250.439H194.161C194.372 250.439 194.574 250.522 194.723 250.671C194.872 250.82 194.956 251.022 194.956 251.232V253.355C194.957 253.809 194.868 254.258 194.694 254.677C194.521 255.096 194.266 255.477 193.945 255.798C193.624 256.119 193.243 256.373 192.823 256.546C192.403 256.719 191.953 256.808 191.499 256.807H190.853C189.938 256.807 189.061 256.444 188.414 255.798C187.767 255.152 187.403 254.275 187.403 253.362V251.239C187.403 251.134 187.424 251.031 187.464 250.935C187.504 250.839 187.562 250.751 187.636 250.677C187.71 250.604 187.797 250.545 187.894 250.505C187.99 250.466 188.093 250.445 188.198 250.445L188.23 250.439Z" fill="#FDA57D"/>
<path opacity="0.1" d="M187.449 251.503C189.873 252.401 192.539 252.401 194.963 251.503V250.581H187.449V251.503Z" fill="black"/>
<path d="M191.221 252.019C197.17 252.019 201.992 247.204 201.992 241.263C201.992 235.323 197.17 230.507 191.221 230.507C185.273 230.507 180.451 235.323 180.451 241.263C180.451 247.204 185.273 252.019 191.221 252.019Z" fill="#FDA57D"/>
<path d="M180.904 237.185H201.436C201.436 237.185 199.685 228.907 191.919 229.442C184.153 229.978 180.904 237.185 180.904 237.185Z" fill="#333333"/>
<path d="M180.677 242.683C181.231 242.683 181.679 241.842 181.679 240.805C181.679 239.768 181.231 238.927 180.677 238.927C180.124 238.927 179.676 239.768 179.676 240.805C179.676 241.842 180.124 242.683 180.677 242.683Z" fill="#FDA57D"/>
<path d="M201.707 242.683C202.261 242.683 202.709 241.842 202.709 240.805C202.709 239.768 202.261 238.927 201.707 238.927C201.154 238.927 200.706 239.768 200.706 240.805C200.706 241.842 201.154 242.683 201.707 242.683Z" fill="#FDA57D"/>
<path opacity="0.1" d="M180.904 237.463H201.436C201.436 237.463 199.685 229.184 191.919 229.72C184.153 230.255 180.904 237.463 180.904 237.463Z" fill="black"/>
<path d="M205.313 362.801C217.281 362.801 226.982 353.066 226.982 341.057C226.982 329.047 217.281 319.312 205.313 319.312C193.345 319.312 183.643 329.047 183.643 341.057C183.643 353.066 193.345 362.801 205.313 362.801Z" fill="#E0E0E0"/>
<path d="M205.313 446.457C217.281 446.457 226.982 436.722 226.982 424.712C226.982 412.703 217.281 402.968 205.313 402.968C193.345 402.968 183.643 412.703 183.643 424.712C183.643 436.722 193.345 446.457 205.313 446.457Z" fill="#E0E0E0"/>
<path d="M362.835 411.259H248.096V420.396H362.835V411.259Z" fill="#E0E0E0"/>
<path d="M362.835 429.532H248.096V438.669H362.835V429.532Z" fill="#EEEEEE"/>
<path d="M362.835 106.162H248.096V115.299H362.835V106.162Z" fill="#E0E0E0"/>
<path d="M362.835 124.442H248.096V133.578H362.835V124.442Z" fill="#E0E0E0"/>
<path d="M301.218 68.3897L248.891 69.1741C248.177 69.1848 247.608 69.7712 247.618 70.4838L247.631 71.329C247.642 72.0416 248.229 72.6107 248.942 72.6L301.269 71.8155C301.983 71.8048 302.553 71.2184 302.542 70.5058L302.529 69.6606C302.519 68.948 301.931 68.379 301.218 68.3897Z" fill="#DBDBDB"/>
<path d="M314.233 71.6279C315.371 71.6108 316.28 70.6755 316.262 69.5389C316.245 68.4022 315.309 67.4946 314.171 67.5116C313.033 67.5287 312.124 68.464 312.141 69.6006C312.158 70.7373 313.095 71.6449 314.233 71.6279Z" fill="#DBDBDB"/>
</g>
<defs>
<linearGradient id="paint0_linear" x1="28.7461" y1="459.385" x2="225.174" y2="-8.22973" gradientUnits="userSpaceOnUse">
<stop stop-color="#808080" stop-opacity="0.25"/>
<stop offset="0.54" stop-color="#808080" stop-opacity="0.12"/>
<stop offset="1" stop-color="#808080" stop-opacity="0.1"/>
</linearGradient>
<linearGradient id="paint1_linear" x1="142020" y1="384186" x2="324832" y2="139376" gradientUnits="userSpaceOnUse">
<stop stop-color="#808080" stop-opacity="0.25"/>
<stop offset="0.54" stop-color="#808080" stop-opacity="0.12"/>
<stop offset="1" stop-color="#808080" stop-opacity="0.1"/>
</linearGradient>
<linearGradient id="paint2_linear" x1="130096" y1="46709.9" x2="130096" y2="30384.2" gradientUnits="userSpaceOnUse">
<stop stop-color="#808080" stop-opacity="0.25"/>
<stop offset="0.54" stop-color="#808080" stop-opacity="0.12"/>
<stop offset="1" stop-color="#808080" stop-opacity="0.1"/>
</linearGradient>
<clipPath id="clip0">
<rect width="429" height="503" fill="white"/>
</clipPath>
</defs>
</svg>
