<?xml version="1.0" encoding="iso-8859-1"?>
<!-- Generator: Adobe Illustrator 19.0.0, SVG Export Plug-In . SVG Version: 6.00 Build 0)  -->
<svg version="1.1" id="Layer_1" xmlns="http://www.w3.org/2000/svg" xmlns:xlink="http://www.w3.org/1999/xlink" x="0px" y="0px"
	 viewBox="0 0 297 297" style="enable-background:new 0 0 297 297;" xml:space="preserve">
<g>
	<g>
		<g>
			<g>
				<circle style="fill:#17AB93;" cx="148.5" cy="148.5" r="148.5"/>
			</g>
		</g>
	</g>
	<path style="fill:#107A66;" d="M294.746,122.61L230.12,57.959L66.984,235.144l60.347,60.347c6.915,0.987,13.98,1.509,21.168,1.509
		c82.014,0,148.5-66.486,148.5-148.5C297,139.668,296.225,131.018,294.746,122.61z"/>
	<g>
		<rect x="82.5" y="99" style="fill:#3E464C;" width="132" height="115.5"/>
	</g>
	<g>
		<path style="fill:#32373B;" d="M222.253,105.749H74.747c-6.212,0-11.247-5.036-11.247-11.247V65.996
			c0-6.212,5.036-11.247,11.247-11.247h147.505c6.212,0,11.247,5.036,11.247,11.247v28.505
			C233.5,100.713,228.464,105.749,222.253,105.749z"/>
	</g>
	<g>
		<path style="fill:#32373B;" d="M222.253,171.471H74.747c-6.212,0-11.247-5.036-11.247-11.247v-28.505
			c0-6.212,5.036-11.247,11.247-11.247h147.505c6.212,0,11.247,5.036,11.247,11.247v28.505
			C233.5,166.436,228.464,171.471,222.253,171.471z"/>
	</g>
	<g>
		<path style="fill:#32373B;" d="M222.253,238.251H74.747c-6.212,0-11.247-5.036-11.247-11.247v-28.505
			c0-6.212,5.036-11.247,11.247-11.247h147.505c6.212,0,11.247,5.036,11.247,11.247v28.505
			C233.5,233.216,228.464,238.251,222.253,238.251z"/>
	</g>
	<g>
		<circle style="fill:#FFFFFF;" cx="89" cy="80.249" r="6.5"/>
	</g>
	<g>
		<circle style="fill:#F86E51;" cx="109" cy="80.249" r="6.5"/>
	</g>
	<g>
		<circle style="fill:#FFFFFF;" cx="89" cy="212.751" r="6.5"/>
	</g>
	<g>
		<circle style="fill:#F86E51;" cx="109" cy="212.751" r="6.5"/>
	</g>
	<g>
		<circle style="fill:#FFFFFF;" cx="89" cy="145.971" r="6.5"/>
	</g>
	<g>
		<circle style="fill:#F86E51;" cx="109" cy="145.971" r="6.5"/>
	</g>
</g>
<g>
</g>
<g>
</g>
<g>
</g>
<g>
</g>
<g>
</g>
<g>
</g>
<g>
</g>
<g>
</g>
<g>
</g>
<g>
</g>
<g>
</g>
<g>
</g>
<g>
</g>
<g>
</g>
<g>
</g>
</svg>
