<svg id="Capa_1" enable-background="new 0 0 512.008 512.008" height="512" viewBox="0 0 512.008 512.008" width="512" xmlns="http://www.w3.org/2000/svg"><path d="m228.225 160.667c-47.048 0-85.193 38.14-85.193 85.188v132.03c0 15.831-7.675 30.912-20.98 39.492-10.699 6.899-17.781 18.922-17.781 32.599v2.84c0 7.614 6.173 13.787 13.787 13.787h275.895c7.614 0 13.787-6.173 13.787-13.787v-2.84c0-13.677-7.084-25.7-17.782-32.599-13.305-8.58-20.98-23.66-20.98-39.492v-132.03c0-47.048-38.14-85.188-85.188-85.188z" fill="#d0e2e7"/><path d="m389.958 417.377c-13.305-8.58-20.98-23.66-20.98-39.492v-132.03c0-41.319-29.417-75.767-68.449-83.544 17.459 15.6 28.449 38.288 28.449 63.544v132.03c0 15.831 7.675 30.912 20.979 39.492 10.699 6.899 17.782 18.922 17.782 32.599v2.84c0 7.614-6.173 13.787-13.787 13.787h-249.532c-.096 1.112-.149 2.237-.149 3.374v2.84c0 7.614 6.173 13.787 13.787 13.787h275.895c7.614 0 13.787-6.173 13.787-13.787v-2.84c0-13.678-7.083-25.701-17.782-32.6z" fill="#b4d0d5"/><path d="m288.58 160.765h-65.145c-6.83 0-12.366-5.536-12.366-12.366v-2.958c0-6.83 5.536-12.366 12.366-12.366h65.145c6.829 0 12.366 5.536 12.366 12.366v2.958c0 6.829-5.536 12.366-12.366 12.366z" fill="#78d0b1"/><g fill="#d0e2e7"><path d="m320.62 45.405c-16.154 0-16.154 10.133-32.308 10.133s-16.154-10.133-32.308-10.133c-16.152 0-16.152 10.133-32.304 10.133s-16.152-10.133-32.305-10.133l26.795 79.001c1.758 5.182 6.621 8.668 12.093 8.668h51.448c5.472 0 10.336-3.486 12.093-8.668z"/><path d="m431.43 111.52c-13.55 0-13.55 8.5-27.101 8.5-13.55 0-13.55-8.5-27.101-8.5-13.548 0-13.548 8.5-27.097 8.5s-13.549-8.5-27.098-8.5l22.476 66.268c1.474 4.347 5.554 7.271 10.144 7.271h43.155c4.59 0 8.67-2.924 10.144-7.271z"/><path d="m489.592 425.311c-11.16-7.197-17.598-19.847-17.598-33.126v-107.525c0-39.465-31.992-71.457-71.457-71.457h-38.041c4.177 10.056 6.482 21.085 6.482 32.652v132.03c0 15.831 7.675 30.911 20.98 39.492 10.699 6.9 17.782 18.922 17.782 32.599v2.84c0 7.614-6.172 13.787-13.787 13.787h98.99c6.387 0 11.565-5.178 11.565-11.565v-2.382c0-11.473-5.942-21.557-14.916-27.345z"/></g><path d="m489.592 425.311c-11.16-7.197-17.598-19.847-17.598-33.126v-107.525c0-35.953-26.552-65.704-61.116-70.714 13.041 12.946 21.116 30.887 21.116 50.714v107.525c0 13.28 6.438 25.929 17.598 33.126 8.974 5.787 14.916 15.872 14.916 27.345v2.382c0 6.387-5.178 11.565-11.565 11.565h-45.348c.096 1.112.145 2.237.145 3.374v2.84c0 7.614-6.172 13.787-13.787 13.787h98.99c6.387 0 11.565-5.178 11.565-11.565v-2.382c0-11.474-5.942-21.558-14.916-27.346z" fill="#b4d0d5"/><path d="m400.814 185.058h-47.164c-2.906 0-5.607.879-7.852 2.384 7.039 7.469 12.743 16.211 16.732 25.842h38.284c7.795 0 14.113-6.319 14.113-14.113s-6.318-14.113-14.113-14.113z" fill="#78d0b1"/><path d="m80.578 111.519c13.55 0 13.55 8.5 27.101 8.5s13.55-8.5 27.101-8.5c13.548 0 13.548 8.5 27.097 8.5s13.549-8.5 27.098-8.5l-22.476 66.267c-1.474 4.347-5.554 7.271-10.144 7.271h-43.155c-4.59 0-8.67-2.924-10.144-7.271z" fill="#d0e2e7"/><path d="m288.312 55.539c-8.099 0-12.137-2.547-16.187-5.087l-18.3 53.955c-1.758 5.182-6.621 8.668-12.094 8.668h-27.385l3.843 11.332c1.758 5.182 6.621 8.668 12.093 8.668h51.448c5.472 0 10.336-3.486 12.093-8.668l26.795-79.001c-16.152-.001-16.152 10.133-32.306 10.133z" fill="#b4d0d5"/><path d="m404.33 120.02c-10.662 0-12.935-5.262-20.02-7.506l-15.355 45.273c-1.474 4.347-5.554 7.271-10.144 7.271h-17.616l4.317 12.729c1.474 4.347 5.554 7.271 10.144 7.271h43.155c4.59 0 8.67-2.924 10.144-7.271l22.476-66.267c-13.551 0-13.551 8.5-27.101 8.5z" fill="#b4d0d5"/><path d="m161.876 120.02c-10.663 0-12.934-5.265-20.022-7.507l-15.356 45.275c-1.474 4.347-5.554 7.271-10.144 7.271h-17.617l4.317 12.729c1.474 4.347 5.554 7.271 10.144 7.271h43.155c4.59 0 8.67-2.924 10.144-7.271l22.476-66.267c-13.548-.001-13.548 8.499-27.097 8.499z" fill="#b4d0d5"/><path d="m22.416 425.311c11.16-7.197 17.598-19.847 17.598-33.126v-107.525c0-39.465 31.992-71.457 71.457-71.457h38.041c-4.177 10.056-6.48 21.085-6.48 32.652v132.03c0 15.831-7.675 30.911-20.98 39.492-10.699 6.9-17.781 18.922-17.781 32.599v2.84c0 7.614 6.172 13.787 13.787 13.787h-98.993c-6.387 0-11.565-5.178-11.565-11.565v-2.382c0-11.473 5.942-21.557 14.916-27.345z" fill="#d0e2e7"/><path d="m111.471 213.203c-2.556 0-5.08.134-7.566.396-.577 4.002-.875 8.094-.875 12.256v132.114c0 16.103-8.329 30.851-21.672 39.865-10.311 6.966-17.089 18.762-17.089 32.142 0 9.183-7.444 16.626-16.626 16.626h-39.58c-.369 1.961-.563 3.985-.563 6.053v2.382c0 6.387 5.178 11.565 11.565 11.565h98.994c-7.615 0-13.787-6.173-13.787-13.787v-2.84c0-13.677 7.082-25.7 17.781-32.599 13.305-8.58 20.98-23.66 20.98-39.492v-132.03c0-11.567 2.303-22.596 6.48-32.652h-38.042z" fill="#b4d0d5"/><path d="m111.194 185.058h47.164c2.906 0 5.607.879 7.852 2.384-7.039 7.469-12.743 16.211-16.732 25.842h-38.284c-7.795 0-14.113-6.319-14.113-14.113s6.318-14.113 14.113-14.113z" fill="#78d0b1"/><path d="m307.995 346.052c0-25.082-20.406-45.488-45.487-45.488h-12.998c-8.147 0-14.775-6.627-14.775-14.774s6.628-14.775 14.775-14.775h12.998c5.954 0 11.3 3.544 13.619 9.028 3.304 7.811 12.318 11.464 20.126 8.162 7.811-3.304 11.465-12.315 8.162-20.126-5.963-14.098-18.426-24.028-33.049-26.914v-11.637c0-8.482-6.875-15.357-15.357-15.357s-15.357 6.875-15.357 15.357v11.64c-20.857 4.133-36.63 22.569-36.63 44.622 0 25.082 20.406 45.487 45.488 45.487h12.998c8.147 0 14.774 6.628 14.774 14.775 0 8.146-6.627 14.774-14.774 14.774h-12.998c-6.139 0-11.546-3.694-13.775-9.41-3.082-7.901-11.985-11.81-19.887-8.728-7.901 3.082-11.809 11.985-8.728 19.887 5.765 14.782 18.43 25.169 33.532 28.113v11.625c0 8.482 6.875 15.357 15.357 15.357s15.357-6.875 15.357-15.357v-11.64c20.855-4.134 36.629-22.57 36.629-44.621z" fill="#78d0b1"/><path d="m493.656 419.009c-8.868-5.719-14.162-15.747-14.162-26.824v-107.525c0-36.668-25.125-67.578-59.063-76.419 1.281-2.76 1.997-5.833 1.997-9.07 0-6.526-2.908-12.386-7.496-16.353.438-.834.815-1.71 1.125-2.622l22.476-66.268c1.647-4.859-1.97-9.909-7.103-9.909-15.559 0-17.027 8.5-27.101 8.5-9.954 0-11.565-8.5-27.101-8.5-15.557 0-17.025 8.5-27.097 8.5-9.953 0-11.564-8.5-27.098-8.5-5.13 0-8.75 5.048-7.103 9.909l18.406 54.267c-8.321-5.434-17.563-9.568-27.438-12.112.996-2.365 1.547-4.962 1.547-7.684v-2.958c0-6.724-3.358-12.678-8.484-16.274 1.058-2.18-.44 1.725 27.761-81.353 1.649-4.858-1.97-9.909-7.103-9.909-18.056 0-19.786 10.133-32.308 10.133-12.47 0-14.287-10.133-32.309-10.133-18.053 0-19.785 10.133-32.304 10.133-12.47 0-14.283-10.133-32.305-10.133-5.13 0-8.752 5.049-7.103 9.909 28.191 83.05 26.704 79.176 27.76 81.353-5.126 3.596-8.484 9.55-8.484 16.274v2.958c0 2.723.551 5.319 1.547 7.684-9.879 2.544-19.125 6.681-27.448 12.118l18.408-54.273c1.647-4.859-1.97-9.909-7.103-9.909-15.559 0-17.025 8.5-27.098 8.5-9.952 0-11.565-8.5-27.097-8.5-15.561 0-17.026 8.5-27.101 8.5-9.953 0-11.567-8.5-27.101-8.5-5.13 0-8.75 5.048-7.103 9.909l8.413 24.805c1.331 3.923 5.589 6.024 9.512 4.693s6.023-5.589 4.693-9.512l-3.492-10.296c3.467 1.993 7.945 3.9 15.077 3.9 15.559 0 17.027-8.5 27.101-8.5 10.106 0 11.488 8.5 27.097 8.5 7.13 0 11.607-1.907 15.073-3.899l-17.555 51.758c-.442 1.304-1.664 2.179-3.041 2.179h-14.078v-21.793c0-4.142-3.357-7.5-7.5-7.5s-7.5 3.358-7.5 7.5v21.793h-14.077c-1.377 0-2.6-.876-3.042-2.18l-2.501-7.375c-1.33-3.923-5.591-6.024-9.511-4.694-3.923 1.33-6.024 5.588-4.694 9.511l2.501 7.376c.31.913.687 1.788 1.125 2.622-4.588 3.966-7.496 9.826-7.496 16.353 0 3.237.716 6.31 1.997 9.07-33.938 8.841-59.063 39.751-59.063 76.419v107.525c0 11.077-5.294 21.104-14.162 26.823-11.487 7.412-18.347 19.991-18.347 33.65v2.382c0 10.512 8.553 19.064 19.064 19.064h408.418c4.143 0 7.5-3.358 7.5-7.5s-3.357-7.5-7.5-7.5h-13.19c.616-1.988.948-4.099.948-6.287v-2.839c0-15.791-7.932-30.334-21.218-38.902-10.985-7.084-17.544-19.491-17.544-33.188v-75.087c0-4.142-3.357-7.5-7.5-7.5s-7.5 3.358-7.5 7.5v75.087c0 18.816 9.127 35.936 24.415 45.794 8.983 5.794 14.347 15.624 14.347 26.296v2.839c0 3.467-2.82 6.287-6.287 6.287h-275.89c-3.467 0-6.287-2.82-6.287-6.287v-2.839c0-10.672 5.363-20.502 14.347-26.296 15.288-9.859 24.415-26.979 24.415-45.795v-132.03c0-41.527 32.752-75.549 73.782-77.59h63.378c41.03 2.042 73.782 36.063 73.782 77.59v21.943c0 4.142 3.357 7.5 7.5 7.5s7.5-3.358 7.5-7.5v-21.943c0-8.684-1.201-17.094-3.445-25.07 29.277-.019 27.879.048 29.332-.055 34.424.971 62.129 29.276 62.129 63.931v107.525c0 16.196 7.862 30.936 21.033 39.43 7.188 4.635 11.48 12.501 11.48 21.041v2.382c0 2.241-1.823 4.064-4.064 4.064h-30.461c-4.143 0-7.5 3.358-7.5 7.5s3.357 7.5 7.5 7.5h30.461c10.512 0 19.064-8.552 19.064-19.064v-2.382c-.001-13.66-6.862-26.239-18.353-33.648zm-126.333-213.306c-2.223-4.605-4.815-9-7.739-13.145h41.23c3.646 0 6.613 2.967 6.613 6.613 0 3.317-2.455 6.071-5.643 6.542-1.056-.016-3.469-.007-34.461-.01zm-17.191-78.183c15.48 0 17.107-8.5 27.097-8.5 9.953 0 11.567 8.5 27.101 8.5 7.132 0 11.61-1.907 15.077-3.9l-17.555 51.758c-.442 1.304-1.665 2.181-3.042 2.181h-14.077v-21.793c0-4.142-3.357-7.5-7.5-7.5s-7.5 3.358-7.5 7.5v21.793h-14.078c-1.377 0-2.599-.875-3.041-2.18l-17.555-51.757c3.465 1.991 7.943 3.898 15.073 3.898zm-147.044-70.992c6.466 4.041 11.421 6.511 20.612 6.511 18.054 0 19.783-10.133 32.304-10.133 12.47 0 14.287 10.133 32.309 10.133 9.235 0 14.326-2.566 20.616-6.512l-22.206 65.471c-.726 2.14-2.731 3.578-4.991 3.578h-5.237l3.016-24.702c.502-4.111-2.424-7.852-6.535-8.354-4.106-.498-7.852 2.424-8.354 6.536l-3.237 26.52h-10.752l-3.237-26.52c-.502-4.112-4.249-7.035-8.354-6.536-4.111.502-7.037 4.242-6.535 8.354l3.016 24.702h-5.237c-2.26 0-4.266-1.438-4.991-3.577zm20.348 96.737c-2.683.061-4.866-2.183-4.866-4.866v-2.958c0-2.683 2.183-4.866 4.866-4.866h65.145c2.684 0 4.866 2.183 4.866 4.866v2.958c0 2.683-2.183 4.869-4.866 4.866-.158-.001-59.612-.126-65.145 0zm-118.856 45.906c0-3.646 2.967-6.613 6.613-6.613h41.238c-2.924 4.145-5.516 8.54-7.739 13.145-30.999.003-33.412-.006-34.47.01-3.187-.471-5.642-3.225-5.642-6.542zm30.957 178.714c0 13.697-6.559 26.104-17.544 33.189-13.286 8.568-21.218 23.111-21.218 38.902v2.839c0 2.188.332 4.299.948 6.287h-78.659c-2.241 0-4.064-1.823-4.064-4.064v-2.382c0-8.54 4.292-16.406 11.48-21.042 13.171-8.493 21.033-23.233 21.033-39.429v-107.525c0-34.655 27.705-62.96 62.129-63.931 1.424.101.447.036 29.339.055-2.244 7.977-3.445 16.386-3.445 25.07v132.031z"/><path d="m256.008 425.169c12.604 0 22.857-10.253 22.857-22.857v-5.856c21.554-6.998 36.629-27.29 36.629-50.404 0-29.218-23.77-52.988-52.987-52.988h-12.998c-4.011 0-7.274-3.263-7.274-7.274s3.264-7.274 7.274-7.274h12.998c2.934 0 5.569 1.747 6.713 4.449 2.378 5.623 6.804 9.983 12.463 12.278 5.658 2.294 11.87 2.249 17.491-.13 11.607-4.91 17.058-18.348 12.147-29.955-6.044-14.289-17.927-25.083-32.456-29.782v-5.847c0-12.604-10.254-22.857-22.857-22.857s-22.856 10.253-22.856 22.857v5.855c-21.555 6.999-36.63 27.291-36.63 50.405 0 29.218 23.77 52.988 52.987 52.988h12.998c4.011 0 7.274 3.264 7.274 7.275s-3.264 7.274-7.274 7.274h-12.998c-3.024 0-5.688-1.819-6.787-4.636-4.58-11.742-17.856-17.569-29.6-12.99-11.741 4.579-17.569 17.857-12.99 29.599 5.871 15.055 17.973 26.37 33.02 31.193v5.819c-.001 12.605 10.252 22.858 22.856 22.858zm-41.902-65.319c-1.573-4.036.43-8.601 4.467-10.175.934-.364 1.896-.537 2.845-.537 3.144 0 6.119 1.901 7.329 5.003 3.36 8.617 11.51 14.185 20.762 14.185h12.998c12.282 0 22.274-9.992 22.274-22.274s-9.992-22.275-22.274-22.275h-12.998c-20.946 0-37.987-17.041-37.987-37.988 0-18.08 12.864-33.752 30.588-37.265 3.512-.696 6.042-3.777 6.042-7.357v-11.639c0-4.333 3.524-7.857 7.856-7.857 4.333 0 7.857 3.524 7.857 7.857v11.636c0 3.582 2.533 6.665 6.048 7.358 12.356 2.439 22.672 10.842 27.594 22.478 1.688 3.99-.187 8.609-4.177 10.297-1.931.816-4.065.833-6.011.043-1.946-.789-3.468-2.288-4.285-4.221-3.497-8.265-11.555-13.605-20.527-13.605h-12.998c-12.282 0-22.274 9.992-22.274 22.274s9.992 22.274 22.274 22.274h12.998c20.946 0 37.987 17.042 37.987 37.988 0 18.08-12.863 33.751-30.587 37.264-3.512.696-6.042 3.777-6.042 7.357v11.64c0 4.333-3.524 7.857-7.857 7.857-4.332 0-7.856-3.524-7.856-7.857v-11.625c0-3.589-2.542-6.675-6.064-7.361-12.759-2.486-23.218-11.262-27.982-23.475z"/></svg>