<?xml version="1.0" encoding="iso-8859-1"?>
<!-- Generator: Adobe Illustrator 19.0.0, SVG Export Plug-In . SVG Version: 6.00 Build 0)  -->
<svg version="1.1" id="Layer_1" xmlns="http://www.w3.org/2000/svg" xmlns:xlink="http://www.w3.org/1999/xlink" x="0px" y="0px"
	 viewBox="0 0 512 512" style="enable-background:new 0 0 512 512;" xml:space="preserve">
<polygon style="fill:#E5E5E5;" points="499.86,60.701 166.268,60.701 166.268,504.082 427.019,504.082 499.86,431.241 "/>
<polygon style="fill:#CCCCCC;" points="166.268,60.701 166.268,504.082 418.631,504.082 206.102,60.701 "/>
<polygon style="fill:#F2F2F2;" points="427.019,504.082 499.86,431.241 427.019,431.241 "/>
<path style="fill:#FFD652;" d="M447.901,279.186c10.346-24.484,16.066-51.398,16.066-79.649c0-73.941-39.19-138.725-97.927-174.728
	L259.167,199.536L447.901,279.186z"/>
<path style="fill:#FB9D46;" d="M280.637,164.434l-21.47,35.102l188.734,79.649c4.909-11.619,8.763-23.79,11.472-36.387
	L280.637,164.434z"/>
<path style="fill:#5AC779;" d="M216.94,212.718L323.813,37.989C292.7,18.919,256.107,7.918,216.94,7.918
	c-113.108,0-204.8,91.692-204.8,204.8s91.692,204.8,204.8,204.8c84.857,0,157.659-51.609,188.734-125.151L216.94,212.718z"/>
<path style="fill:#00A085;" d="M252.833,381.625c-113.108,0-204.8-91.692-204.8-204.8c0-47.406,16.114-91.045,43.154-125.754
	C43.084,88.548,12.14,147.016,12.14,212.718c0,113.108,91.692,204.8,204.8,204.8c65.699,0,124.165-30.941,161.64-79.039
	C343.874,365.515,300.236,381.625,252.833,381.625z"/>
<path d="M499.86,332.536c4.374,0,7.918-3.544,7.918-7.918V60.701c0-4.374-3.544-7.918-7.918-7.918h-84.454
	c-0.708,0-1.391,0.101-2.045,0.277c-12.786-13.453-27.3-25.265-43.184-35.002c-1.793-1.097-3.946-1.439-5.99-0.947
	c-2.043,0.491-3.806,1.775-4.904,3.567l-19.636,32.105h-15.602l6.522-10.663c2.279-3.728,1.108-8.598-2.617-10.882
	C294.609,10.802,256.223,0,216.94,0C99.648,0,4.223,95.425,4.223,212.718c0,65.58,29.574,126.504,81.137,167.148
	c3.434,2.708,8.413,2.119,11.119-1.316c2.707-3.434,2.118-8.413-1.316-11.118c-47.73-37.624-75.105-94.015-75.105-154.714
	c0-108.562,88.322-196.882,196.882-196.882c33.706,0,66.696,8.59,95.908,24.907L210.186,208.587
	c-1.203,1.967-1.49,4.361-0.783,6.556c0.706,2.195,2.334,3.974,4.459,4.87l181.291,76.509
	C362.732,365.476,293.63,409.6,216.94,409.6c-31.695,0-61.954-7.299-89.934-21.693c-3.889-2.002-8.663-0.469-10.663,3.418
	c-2,3.888-0.47,8.662,3.418,10.662c12.465,6.413,25.353,11.5,38.589,15.292v86.802c0,4.374,3.545,7.918,7.918,7.918h260.751
	c3.918,0,6.253-2.972,8.777-5.497c6.331-6.331,49.576-49.576,64.868-64.868c2.888-2.888,7.114-5.88,7.114-10.394v-70.73
	c0-4.374-3.544-7.918-7.918-7.918c-4.374,0-7.918,3.544-7.918,7.918v62.812h-64.924c-4.374,0-7.918,3.544-7.918,7.918v64.924
	H174.186v-75.004c13.927,2.834,28.2,4.274,42.755,4.274c52.886,0,102.426-19.43,140.459-52.853c0.328,0.041,0.661,0.07,1.001,0.07
	h63.34c4.374,0,7.918-3.544,7.918-7.918c0-4.374-3.544-7.918-7.918-7.918h-48.217c5.275-5.738,10.251-11.783,14.9-18.121
	c0.532,0.112,1.082,0.174,1.647,0.174h31.67c4.374,0,7.918-3.544,7.918-7.918c0-4.374-3.544-7.918-7.918-7.918h-22.859
	c5.299-8.754,10.018-17.961,14.086-27.587c0.817-1.935,0.833-4.115,0.042-6.061c-0.79-1.947-2.321-3.497-4.257-4.316
	l-180.258-76.073L314.36,68.619h15.602l-77.548,126.787c-1.203,1.967-1.49,4.361-0.783,6.556c0.706,2.195,2.334,3.974,4.459,4.87
	l188.734,79.649c1.005,0.423,2.048,0.625,3.075,0.625c3.087,0,6.019-1.817,7.296-4.838c11.076-26.21,16.691-54.044,16.691-82.731
	c0-37.057-9.676-73.546-27.984-105.524c-5.084-8.881-10.823-17.357-17.113-25.394h65.155v256
	C491.942,328.992,495.486,332.536,499.86,332.536z M480.746,439.159l-45.81,45.81v-45.81H480.746z M456.049,199.536
	c0,23.89-4.204,47.136-12.508,69.216l-172.821-72.934l97.855-159.987C423.503,72.518,456.049,133.136,456.049,199.536z"/>
<path d="M394.293,424.379H271.835c-4.374,0-7.918,3.544-7.918,7.918c0,4.374,3.544,7.918,7.918,7.918h122.458
	c4.374,0,7.918-3.544,7.918-7.918C402.21,427.923,398.666,424.379,394.293,424.379z"/>
<path d="M394.293,458.161H271.835c-4.374,0-7.918,3.544-7.918,7.918s3.544,7.918,7.918,7.918h122.458
	c4.374,0,7.918-3.544,7.918-7.918S398.666,458.161,394.293,458.161z"/>
<path d="M354.177,165.74c13.679,0,24.808-11.129,24.808-24.808s-11.129-24.808-24.808-24.808s-24.808,11.129-24.808,24.808
	S340.498,165.74,354.177,165.74z M354.177,131.959c4.948,0,8.973,4.025,8.973,8.973s-4.025,8.973-8.973,8.973
	s-8.973-4.025-8.973-8.973S349.229,131.959,354.177,131.959z"/>
<path d="M410.909,172.855c-13.679,0-24.808,11.129-24.808,24.808s11.129,24.808,24.808,24.808s24.808-11.129,24.808-24.808
	S424.588,172.855,410.909,172.855z M410.909,206.637c-4.948,0-8.973-4.025-8.973-8.973s4.025-8.973,8.973-8.973
	s8.973,4.025,8.973,8.973S415.857,206.637,410.909,206.637z"/>
<path d="M336.718,215.123c1.547,1.546,3.573,2.318,5.599,2.318s4.053-0.773,5.599-2.318l82.342-82.342
	c3.092-3.093,3.092-8.105,0-11.197c-3.093-3.091-8.105-3.091-11.197,0l-82.342,82.342
	C333.626,207.019,333.626,212.031,336.718,215.123z"/>
<path d="M117.179,258.639h6.862c10.186,0,18.474-8.288,18.474-18.474v-16.891c0-10.186-8.288-18.474-18.474-18.474h-6.862v-22.169
	h21.641c4.373,0,7.918-3.544,7.918-7.918s-3.545-7.918-7.918-7.918h-21.641v-8.973c0-4.374-3.545-7.918-7.918-7.918
	c-4.373,0-7.918,3.544-7.918,7.918v8.973h-6.862c-10.186,0-18.474,8.288-18.474,18.474v16.891c0,10.186,8.288,18.474,18.474,18.474
	h6.862v22.169H79.703c-4.373,0-7.918,3.544-7.918,7.918c0,4.374,3.545,7.918,7.918,7.918h21.641v8.973
	c0,4.374,3.545,7.918,7.918,7.918c4.373,0,7.918-3.544,7.918-7.918V258.639z M94.482,204.8c-1.455,0-2.639-1.183-2.639-2.639V185.27
	c0-1.456,1.184-2.639,2.639-2.639h6.862V204.8H94.482z M117.179,220.635h6.862c1.455,0,2.639,1.183,2.639,2.639v16.891
	c0,1.456-1.184,2.639-2.639,2.639h-6.862V220.635z"/>
<path d="M181.047,383.208h21.641v8.973c0,4.374,3.545,7.918,7.918,7.918c4.373,0,7.918-3.544,7.918-7.918v-8.973h6.862
	c10.186,0,18.474-8.288,18.474-18.474v-16.891c0-10.186-8.288-18.474-18.474-18.474h-6.862V307.2h21.641
	c4.373,0,7.918-3.544,7.918-7.918c0-4.374-3.545-7.918-7.918-7.918h-21.641v-8.973c0-4.374-3.545-7.918-7.918-7.918
	c-4.373,0-7.918,3.544-7.918,7.918v8.973h-6.862c-10.186,0-18.474,8.288-18.474,18.474v16.891c0,10.186,8.288,18.474,18.474,18.474
	h6.862v22.169h-21.641c-4.373,0-7.918,3.544-7.918,7.918C173.13,379.664,176.675,383.208,181.047,383.208z M195.827,329.369
	c-1.455,0-2.639-1.183-2.639-2.639v-16.891c0-1.456,1.184-2.639,2.639-2.639h6.862v22.169H195.827z M218.524,345.204h6.862
	c1.455,0,2.639,1.183,2.639,2.639v16.891c0,1.456-1.184,2.639-2.639,2.639h-6.862V345.204z"/>
<path d="M181.047,126.68c-4.373,0-7.918,3.544-7.918,7.918s3.545,7.918,7.918,7.918h21.641v8.973c0,4.374,3.545,7.918,7.918,7.918
	c4.373,0,7.918-3.544,7.918-7.918v-8.973h6.862c10.186,0,18.474-8.288,18.474-18.474v-16.891c0-10.186-8.288-18.474-18.474-18.474
	h-6.862V66.507h21.641c4.373,0,7.918-3.544,7.918-7.918s-3.545-7.918-7.918-7.918h-21.641v-8.973c0-4.374-3.545-7.918-7.918-7.918
	c-4.373,0-7.918,3.544-7.918,7.918v8.973h-6.862c-10.186,0-18.474,8.288-18.474,18.474v16.891c0,10.186,8.288,18.474,18.474,18.474
	h6.862v22.169H181.047z M195.827,88.676c-1.455,0-2.639-1.183-2.639-2.639V69.146c0-1.456,1.184-2.639,2.639-2.639h6.862v22.169
	H195.827z M218.524,104.511h6.862c1.455,0,2.639,1.183,2.639,2.639v16.891c0,1.456-1.184,2.639-2.639,2.639h-6.862V104.511z"/>
<g>
</g>
<g>
</g>
<g>
</g>
<g>
</g>
<g>
</g>
<g>
</g>
<g>
</g>
<g>
</g>
<g>
</g>
<g>
</g>
<g>
</g>
<g>
</g>
<g>
</g>
<g>
</g>
<g>
</g>
</svg>
