<svg id="Layer_1" enable-background="new 0 0 512 512" height="512" viewBox="0 0 512 512" width="512" xmlns="http://www.w3.org/2000/svg"><path d="m406 60c-24.901 0-45-20.101-45-45v-15h-210v15c0 24.899-20.099 45-45 45h-45v186.4c0 119.7 76.5 226 190.201 264.101l4.799 1.499 4.799-1.5c113.701-38.1 190.201-144.401 190.201-264.1v-186.4z" fill="#ff637b"/><path d="m451 60v186.4c0 119.7-76.5 226-190.201 264.101l-4.799 1.499v-512h105v15c0 24.899 20.099 45 45 45z" fill="#e63950"/><path d="m379.6 116.7c-26.7-6.901-50.4-24.901-64.501-49.2l-4.499-7.5h-109.2l-4.499 7.5c-14.101 24.3-37.8 42.299-64.501 49.2l-11.4 3v126.7c0 85.8 50.7 164.801 129 199.9l6 2.699 6-2.699c78.3-35.099 129-114.101 129-199.9v-126.7z" fill="#ffda2d"/><path d="m391 119.7v126.7c0 85.8-50.7 164.801-129 199.9l-6 2.699v-388.999h54.6l4.499 7.5c14.101 24.3 37.8 42.299 64.501 49.2z" fill="#fdbf00"/></svg>